G04 #@! TF.GenerationSoftware,KiCad,Pcbnew,5.1.5+dfsg1-2build2*
G04 #@! TF.CreationDate,2021-08-31T16:13:46+02:00*
G04 #@! TF.ProjectId,Plant care system,506c616e-7420-4636-9172-652073797374,rev?*
G04 #@! TF.SameCoordinates,Original*
G04 #@! TF.FileFunction,Legend,Bot*
G04 #@! TF.FilePolarity,Positive*
%FSLAX46Y46*%
G04 Gerber Fmt 4.6, Leading zero omitted, Abs format (unit mm)*
G04 Created by KiCad (PCBNEW 5.1.5+dfsg1-2build2) date 2021-08-31 16:13:46*
%MOMM*%
%LPD*%
G04 APERTURE LIST*
%ADD10C,0.120000*%
%ADD11C,0.150000*%
G04 APERTURE END LIST*
D10*
X165100000Y-24750000D02*
X162350000Y-24750000D01*
X165100000Y-45750000D02*
X165100000Y-24750000D01*
X162350000Y-45750000D02*
X165100000Y-45750000D01*
X83100000Y-24750000D02*
X85850000Y-24750000D01*
X83100000Y-45750000D02*
X83100000Y-24750000D01*
X85850000Y-45750000D02*
X83100000Y-45750000D01*
X85850000Y-24750000D02*
X85850000Y-45750000D01*
X162350000Y-24750000D02*
X85850000Y-24750000D01*
X162350000Y-45750000D02*
X162350000Y-24750000D01*
X85850000Y-45750000D02*
X162350000Y-45750000D01*
X203300000Y-30700000D02*
X170100000Y-30700000D01*
X170100000Y-30700000D02*
X170100000Y-41700000D01*
X170100000Y-41700000D02*
X203300000Y-41700000D01*
X203300000Y-41700000D02*
X203300000Y-30700000D01*
X187370000Y-66840000D02*
X192570000Y-66840000D01*
X187370000Y-71980000D02*
X187370000Y-66840000D01*
X192570000Y-74580000D02*
X192570000Y-66840000D01*
X187370000Y-71980000D02*
X189970000Y-71980000D01*
X189970000Y-71980000D02*
X189970000Y-74580000D01*
X189970000Y-74580000D02*
X192570000Y-74580000D01*
X187370000Y-73250000D02*
X187370000Y-74580000D01*
X187370000Y-74580000D02*
X188700000Y-74580000D01*
X83650000Y-60950000D02*
X83650000Y-67450000D01*
X83650000Y-52050000D02*
X83650000Y-58550000D01*
X83650000Y-52050000D02*
X64450000Y-52050000D01*
X64450000Y-52050000D02*
X64450000Y-67450000D01*
X64450000Y-67450000D02*
X83650000Y-67450000D01*
X67950000Y-64050000D02*
X67950000Y-61750000D01*
X67950000Y-55450000D02*
X67950000Y-57750000D01*
X78450000Y-65750000D02*
X76150000Y-65750000D01*
X79550000Y-59750000D02*
X80450000Y-59750000D01*
X76150000Y-53750000D02*
X78450000Y-53750000D01*
X72650000Y-59750000D02*
X71150000Y-59750000D01*
X71150000Y-59750000D02*
X66650000Y-57050000D01*
X72650000Y-63450000D02*
X79550000Y-63450000D01*
X72650000Y-59750000D02*
X72650000Y-63450000D01*
X79550000Y-59750000D02*
X79550000Y-63450000D01*
X76150000Y-53750000D02*
X76150000Y-58250000D01*
X76150000Y-61250000D02*
X76150000Y-65750000D01*
X73650000Y-61250000D02*
X78650000Y-58250000D01*
X78650000Y-61250000D02*
X78650000Y-58250000D01*
X78650000Y-58250000D02*
X73650000Y-58250000D01*
X73650000Y-58250000D02*
X73650000Y-61250000D01*
X73650000Y-61250000D02*
X78650000Y-61250000D01*
X165500000Y-66500000D02*
X170000000Y-66500000D01*
X164250000Y-70500000D02*
X164250000Y-69000000D01*
X170000000Y-73000000D02*
X165500000Y-73000000D01*
X171250000Y-69000000D02*
X171250000Y-70500000D01*
X171250000Y-79000000D02*
X171250000Y-80500000D01*
X170000000Y-83000000D02*
X165500000Y-83000000D01*
X164250000Y-80500000D02*
X164250000Y-79000000D01*
X165500000Y-76500000D02*
X170000000Y-76500000D01*
X159750000Y-74000000D02*
X159750000Y-75500000D01*
X158500000Y-78000000D02*
X154000000Y-78000000D01*
X152750000Y-75500000D02*
X152750000Y-74000000D01*
X154000000Y-71500000D02*
X158500000Y-71500000D01*
X142000000Y-66500000D02*
X146500000Y-66500000D01*
X140750000Y-70500000D02*
X140750000Y-69000000D01*
X146500000Y-73000000D02*
X142000000Y-73000000D01*
X147750000Y-69000000D02*
X147750000Y-70500000D01*
X142000000Y-76500000D02*
X146500000Y-76500000D01*
X140750000Y-80500000D02*
X140750000Y-79000000D01*
X146500000Y-83000000D02*
X142000000Y-83000000D01*
X147750000Y-79000000D02*
X147750000Y-80500000D01*
X53850000Y-44000000D02*
X80350000Y-44000000D01*
X80350000Y-26500000D02*
X53850000Y-26500000D01*
X53850000Y-26500000D02*
X53850000Y-44000000D01*
X80350000Y-26500000D02*
X81850000Y-26500000D01*
X81850000Y-26500000D02*
X81850000Y-29000000D01*
X81850000Y-29000000D02*
X80350000Y-29000000D01*
X80350000Y-44000000D02*
X81850000Y-44000000D01*
X81850000Y-44000000D02*
X81850000Y-41500000D01*
X81850000Y-41500000D02*
X80350000Y-41500000D01*
X80350000Y-41500000D02*
X80350000Y-29000000D01*
X187675000Y-52315000D02*
X187675000Y-58565000D01*
X192725000Y-52315000D02*
X192725000Y-58565000D01*
X192725000Y-52315000D02*
G75*
G03X187675000Y-52315000I-2525000J0D01*
G01*
X192725000Y-58565000D02*
G75*
G02X187675000Y-58565000I-2525000J0D01*
G01*
X55110000Y-72830000D02*
X55110000Y-82990000D01*
X53840000Y-72830000D02*
X61460000Y-72830000D01*
X61460000Y-72830000D02*
X61460000Y-82990000D01*
X61460000Y-82990000D02*
X53840000Y-82990000D01*
X53840000Y-82990000D02*
X53840000Y-72830000D01*
X55110000Y-57130000D02*
X55110000Y-67290000D01*
X53840000Y-57130000D02*
X61460000Y-57130000D01*
X61460000Y-57130000D02*
X61460000Y-67290000D01*
X61460000Y-67290000D02*
X53840000Y-67290000D01*
X53840000Y-67290000D02*
X53840000Y-57130000D01*
D11*
X124885714Y-32678571D02*
X124742857Y-32726190D01*
X124695238Y-32773809D01*
X124647619Y-32869047D01*
X124647619Y-33011904D01*
X124695238Y-33107142D01*
X124742857Y-33154761D01*
X124838095Y-33202380D01*
X125219047Y-33202380D01*
X125219047Y-32202380D01*
X124885714Y-32202380D01*
X124790476Y-32250000D01*
X124742857Y-32297619D01*
X124695238Y-32392857D01*
X124695238Y-32488095D01*
X124742857Y-32583333D01*
X124790476Y-32630952D01*
X124885714Y-32678571D01*
X125219047Y-32678571D01*
X124361904Y-32202380D02*
X123790476Y-32202380D01*
X124076190Y-33202380D02*
X124076190Y-32202380D01*
X122933333Y-33202380D02*
X123504761Y-33202380D01*
X123219047Y-33202380D02*
X123219047Y-32202380D01*
X123314285Y-32345238D01*
X123409523Y-32440476D01*
X123504761Y-32488095D01*
X194602380Y-35438095D02*
X195411904Y-35438095D01*
X195507142Y-35485714D01*
X195554761Y-35533333D01*
X195602380Y-35628571D01*
X195602380Y-35819047D01*
X195554761Y-35914285D01*
X195507142Y-35961904D01*
X195411904Y-36009523D01*
X194602380Y-36009523D01*
X194697619Y-36438095D02*
X194650000Y-36485714D01*
X194602380Y-36580952D01*
X194602380Y-36819047D01*
X194650000Y-36914285D01*
X194697619Y-36961904D01*
X194792857Y-37009523D01*
X194888095Y-37009523D01*
X195030952Y-36961904D01*
X195602380Y-36390476D01*
X195602380Y-37009523D01*
X190303333Y-75032380D02*
X190303333Y-75746666D01*
X190350952Y-75889523D01*
X190446190Y-75984761D01*
X190589047Y-76032380D01*
X190684285Y-76032380D01*
X189303333Y-76032380D02*
X189874761Y-76032380D01*
X189589047Y-76032380D02*
X189589047Y-75032380D01*
X189684285Y-75175238D01*
X189779523Y-75270476D01*
X189874761Y-75318095D01*
X74788095Y-69402380D02*
X74788095Y-68402380D01*
X74216666Y-69402380D02*
X74645238Y-68830952D01*
X74216666Y-68402380D02*
X74788095Y-68973809D01*
X73264285Y-69402380D02*
X73835714Y-69402380D01*
X73550000Y-69402380D02*
X73550000Y-68402380D01*
X73645238Y-68545238D01*
X73740476Y-68640476D01*
X73835714Y-68688095D01*
X169083333Y-74404761D02*
X168940476Y-74452380D01*
X168702380Y-74452380D01*
X168607142Y-74404761D01*
X168559523Y-74357142D01*
X168511904Y-74261904D01*
X168511904Y-74166666D01*
X168559523Y-74071428D01*
X168607142Y-74023809D01*
X168702380Y-73976190D01*
X168892857Y-73928571D01*
X168988095Y-73880952D01*
X169035714Y-73833333D01*
X169083333Y-73738095D01*
X169083333Y-73642857D01*
X169035714Y-73547619D01*
X168988095Y-73500000D01*
X168892857Y-73452380D01*
X168654761Y-73452380D01*
X168511904Y-73500000D01*
X168178571Y-73452380D02*
X167940476Y-74452380D01*
X167750000Y-73738095D01*
X167559523Y-74452380D01*
X167321428Y-73452380D01*
X166416666Y-74452380D02*
X166988095Y-74452380D01*
X166702380Y-74452380D02*
X166702380Y-73452380D01*
X166797619Y-73595238D01*
X166892857Y-73690476D01*
X166988095Y-73738095D01*
X169083333Y-84404761D02*
X168940476Y-84452380D01*
X168702380Y-84452380D01*
X168607142Y-84404761D01*
X168559523Y-84357142D01*
X168511904Y-84261904D01*
X168511904Y-84166666D01*
X168559523Y-84071428D01*
X168607142Y-84023809D01*
X168702380Y-83976190D01*
X168892857Y-83928571D01*
X168988095Y-83880952D01*
X169035714Y-83833333D01*
X169083333Y-83738095D01*
X169083333Y-83642857D01*
X169035714Y-83547619D01*
X168988095Y-83500000D01*
X168892857Y-83452380D01*
X168654761Y-83452380D01*
X168511904Y-83500000D01*
X168178571Y-83452380D02*
X167940476Y-84452380D01*
X167750000Y-83738095D01*
X167559523Y-84452380D01*
X167321428Y-83452380D01*
X166988095Y-83547619D02*
X166940476Y-83500000D01*
X166845238Y-83452380D01*
X166607142Y-83452380D01*
X166511904Y-83500000D01*
X166464285Y-83547619D01*
X166416666Y-83642857D01*
X166416666Y-83738095D01*
X166464285Y-83880952D01*
X167035714Y-84452380D01*
X166416666Y-84452380D01*
X157583333Y-79404761D02*
X157440476Y-79452380D01*
X157202380Y-79452380D01*
X157107142Y-79404761D01*
X157059523Y-79357142D01*
X157011904Y-79261904D01*
X157011904Y-79166666D01*
X157059523Y-79071428D01*
X157107142Y-79023809D01*
X157202380Y-78976190D01*
X157392857Y-78928571D01*
X157488095Y-78880952D01*
X157535714Y-78833333D01*
X157583333Y-78738095D01*
X157583333Y-78642857D01*
X157535714Y-78547619D01*
X157488095Y-78500000D01*
X157392857Y-78452380D01*
X157154761Y-78452380D01*
X157011904Y-78500000D01*
X156678571Y-78452380D02*
X156440476Y-79452380D01*
X156250000Y-78738095D01*
X156059523Y-79452380D01*
X155821428Y-78452380D01*
X155535714Y-78452380D02*
X154916666Y-78452380D01*
X155250000Y-78833333D01*
X155107142Y-78833333D01*
X155011904Y-78880952D01*
X154964285Y-78928571D01*
X154916666Y-79023809D01*
X154916666Y-79261904D01*
X154964285Y-79357142D01*
X155011904Y-79404761D01*
X155107142Y-79452380D01*
X155392857Y-79452380D01*
X155488095Y-79404761D01*
X155535714Y-79357142D01*
X145583333Y-74404761D02*
X145440476Y-74452380D01*
X145202380Y-74452380D01*
X145107142Y-74404761D01*
X145059523Y-74357142D01*
X145011904Y-74261904D01*
X145011904Y-74166666D01*
X145059523Y-74071428D01*
X145107142Y-74023809D01*
X145202380Y-73976190D01*
X145392857Y-73928571D01*
X145488095Y-73880952D01*
X145535714Y-73833333D01*
X145583333Y-73738095D01*
X145583333Y-73642857D01*
X145535714Y-73547619D01*
X145488095Y-73500000D01*
X145392857Y-73452380D01*
X145154761Y-73452380D01*
X145011904Y-73500000D01*
X144678571Y-73452380D02*
X144440476Y-74452380D01*
X144250000Y-73738095D01*
X144059523Y-74452380D01*
X143821428Y-73452380D01*
X143011904Y-73785714D02*
X143011904Y-74452380D01*
X143250000Y-73404761D02*
X143488095Y-74119047D01*
X142869047Y-74119047D01*
X145583333Y-84404761D02*
X145440476Y-84452380D01*
X145202380Y-84452380D01*
X145107142Y-84404761D01*
X145059523Y-84357142D01*
X145011904Y-84261904D01*
X145011904Y-84166666D01*
X145059523Y-84071428D01*
X145107142Y-84023809D01*
X145202380Y-83976190D01*
X145392857Y-83928571D01*
X145488095Y-83880952D01*
X145535714Y-83833333D01*
X145583333Y-83738095D01*
X145583333Y-83642857D01*
X145535714Y-83547619D01*
X145488095Y-83500000D01*
X145392857Y-83452380D01*
X145154761Y-83452380D01*
X145011904Y-83500000D01*
X144678571Y-83452380D02*
X144440476Y-84452380D01*
X144250000Y-83738095D01*
X144059523Y-84452380D01*
X143821428Y-83452380D01*
X142964285Y-83452380D02*
X143440476Y-83452380D01*
X143488095Y-83928571D01*
X143440476Y-83880952D01*
X143345238Y-83833333D01*
X143107142Y-83833333D01*
X143011904Y-83880952D01*
X142964285Y-83928571D01*
X142916666Y-84023809D01*
X142916666Y-84261904D01*
X142964285Y-84357142D01*
X143011904Y-84404761D01*
X143107142Y-84452380D01*
X143345238Y-84452380D01*
X143440476Y-84404761D01*
X143488095Y-84357142D01*
X67861904Y-33952380D02*
X67861904Y-34761904D01*
X67814285Y-34857142D01*
X67766666Y-34904761D01*
X67671428Y-34952380D01*
X67480952Y-34952380D01*
X67385714Y-34904761D01*
X67338095Y-34857142D01*
X67290476Y-34761904D01*
X67290476Y-33952380D01*
X66909523Y-33952380D02*
X66290476Y-33952380D01*
X66623809Y-34333333D01*
X66480952Y-34333333D01*
X66385714Y-34380952D01*
X66338095Y-34428571D01*
X66290476Y-34523809D01*
X66290476Y-34761904D01*
X66338095Y-34857142D01*
X66385714Y-34904761D01*
X66480952Y-34952380D01*
X66766666Y-34952380D01*
X66861904Y-34904761D01*
X66909523Y-34857142D01*
X186651190Y-54963809D02*
X187127380Y-54963809D01*
X186127380Y-54630476D02*
X186651190Y-54963809D01*
X186127380Y-55297142D01*
X187127380Y-56154285D02*
X187127380Y-55582857D01*
X187127380Y-55868571D02*
X186127380Y-55868571D01*
X186270238Y-55773333D01*
X186365476Y-55678095D01*
X186413095Y-55582857D01*
X62182380Y-77576666D02*
X62896666Y-77576666D01*
X63039523Y-77529047D01*
X63134761Y-77433809D01*
X63182380Y-77290952D01*
X63182380Y-77195714D01*
X62277619Y-78005238D02*
X62230000Y-78052857D01*
X62182380Y-78148095D01*
X62182380Y-78386190D01*
X62230000Y-78481428D01*
X62277619Y-78529047D01*
X62372857Y-78576666D01*
X62468095Y-78576666D01*
X62610952Y-78529047D01*
X63182380Y-77957619D01*
X63182380Y-78576666D01*
X62182380Y-61876666D02*
X62896666Y-61876666D01*
X63039523Y-61829047D01*
X63134761Y-61733809D01*
X63182380Y-61590952D01*
X63182380Y-61495714D01*
X62182380Y-62257619D02*
X62182380Y-62876666D01*
X62563333Y-62543333D01*
X62563333Y-62686190D01*
X62610952Y-62781428D01*
X62658571Y-62829047D01*
X62753809Y-62876666D01*
X62991904Y-62876666D01*
X63087142Y-62829047D01*
X63134761Y-62781428D01*
X63182380Y-62686190D01*
X63182380Y-62400476D01*
X63134761Y-62305238D01*
X63087142Y-62257619D01*
M02*
