M48
INCH,TZ
T1C0.0300
T2C0.0315
T3C0.0394
T4C0.0433
T5C0.0512
T6C0.0598
%
G90
G05
T1
X21917Y-11128
X21917Y-16628
X30917Y-11128
X30917Y-12378
X30917Y-15378
X30917Y-16628
X33110Y-13878
X64606Y-13878
T2
X71004Y-12772
X71004Y-15732
X72004Y-12772
X72004Y-15732
X73004Y-12772
X73004Y-15732
X74004Y-12772
X74004Y-15732
X75004Y-12772
X75004Y-15732
X76004Y-12772
X76004Y-15732
X74882Y-20866
X74882Y-22787
T3
X74291Y-26839
X74291Y-27839
X74291Y-28839
X75291Y-26839
X75291Y-27839
X75291Y-28839
T4
X55512Y-26575
X55512Y-28346
X58071Y-26575
X58071Y-28346
X64764Y-26575
X64764Y-28346
X67323Y-26575
X67323Y-28346
X60236Y-28543
X60236Y-30315
X62795Y-28543
X62795Y-30315
X55512Y-30512
X55512Y-32283
X58071Y-30512
X58071Y-32283
X64764Y-30512
X64764Y-32283
X67323Y-30512
X67323Y-32283
T5
X26752Y-21161
X26752Y-25886
X31555Y-21161
X31555Y-25886
X32343Y-23524
T6
X22461Y-29673
X22461Y-31673
X22461Y-23492
X22461Y-25492
T0
M30
